<svg viewBox="0 0 800 150" xmlns="http://www.w3.org/2000/svg">
  <defs>
    <linearGradient id="glow" x1="0%" y1="0%" x2="100%" y2="0%">
      <stop offset="0%" stop-color="#0f0" stop-opacity="0.7" />
      <stop offset="50%" stop-color="#00ff66" stop-opacity="1" />
      <stop offset="100%" stop-color="#0f0" stop-opacity="0.7" />
    </linearGradient>
    <filter id="blur" x="-5%" y="-5%" width="110%" height="110%">
      <feGaussianBlur in="SourceGraphic" stdDeviation="2" />
    </filter>
    <filter id="noise" x="0%" y="0%" width="100%" height="100%">
      <feTurbulence type="fractalNoise" baseFrequency="0.7" numOctaves="2" stitchTiles="stitch" />
      <feComponentTransfer>
        <feFuncR type="linear" slope="0.1" intercept="0" />
        <feFuncG type="linear" slope="0.5" intercept="0" />
        <feFuncB type="linear" slope="0.1" intercept="0" />
        <feFuncA type="linear" slope="0.1" intercept="0" />
      </feComponentTransfer>
      <feBlend in2="SourceGraphic" mode="multiply" />
    </filter>
  </defs>
  
  <!-- Scanlines -->
  <g opacity="0.2">
    <rect x="0" y="0" width="800" height="150" fill="black" />
    <g>
      <rect x="0" y="2" width="800" height="1" fill="#0f0" opacity="0.3" />
      <rect x="0" y="6" width="800" height="1" fill="#0f0" opacity="0.3" />
      <rect x="0" y="10" width="800" height="1" fill="#0f0" opacity="0.3" />
      <rect x="0" y="14" width="800" height="1" fill="#0f0" opacity="0.3" />
      <rect x="0" y="18" width="800" height="1" fill="#0f0" opacity="0.3" />
      <rect x="0" y="22" width="800" height="1" fill="#0f0" opacity="0.3" />
      <rect x="0" y="26" width="800" height="1" fill="#0f0" opacity="0.3" />
      <rect x="0" y="30" width="800" height="1" fill="#0f0" opacity="0.3" />
      <rect x="0" y="34" width="800" height="1" fill="#0f0" opacity="0.3" />
      <rect x="0" y="38" width="800" height="1" fill="#0f0" opacity="0.3" />
      <rect x="0" y="42" width="800" height="1" fill="#0f0" opacity="0.3" />
      <rect x="0" y="46" width="800" height="1" fill="#0f0" opacity="0.3" />
      <rect x="0" y="50" width="800" height="1" fill="#0f0" opacity="0.3" />
      <rect x="0" y="54" width="800" height="1" fill="#0f0" opacity="0.3" />
      <rect x="0" y="58" width="800" height="1" fill="#0f0" opacity="0.3" />
      <rect x="0" y="62" width="800" height="1" fill="#0f0" opacity="0.3" />
      <rect x="0" y="66" width="800" height="1" fill="#0f0" opacity="0.3" />
      <rect x="0" y="70" width="800" height="1" fill="#0f0" opacity="0.3" />
      <rect x="0" y="74" width="800" height="1" fill="#0f0" opacity="0.3" />
      <rect x="0" y="78" width="800" height="1" fill="#0f0" opacity="0.3" />
      <rect x="0" y="82" width="800" height="1" fill="#0f0" opacity="0.3" />
      <rect x="0" y="86" width="800" height="1" fill="#0f0" opacity="0.3" />
      <rect x="0" y="90" width="800" height="1" fill="#0f0" opacity="0.3" />
      <rect x="0" y="94" width="800" height="1" fill="#0f0" opacity="0.3" />
      <rect x="0" y="98" width="800" height="1" fill="#0f0" opacity="0.3" />
      <rect x="0" y="102" width="800" height="1" fill="#0f0" opacity="0.3" />
      <rect x="0" y="106" width="800" height="1" fill="#0f0" opacity="0.3" />
      <rect x="0" y="110" width="800" height="1" fill="#0f0" opacity="0.3" />
      <rect x="0" y="114" width="800" height="1" fill="#0f0" opacity="0.3" />
      <rect x="0" y="118" width="800" height="1" fill="#0f0" opacity="0.3" />
      <rect x="0" y="122" width="800" height="1" fill="#0f0" opacity="0.3" />
      <rect x="0" y="126" width="800" height="1" fill="#0f0" opacity="0.3" />
      <rect x="0" y="130" width="800" height="1" fill="#0f0" opacity="0.3" />
      <rect x="0" y="134" width="800" height="1" fill="#0f0" opacity="0.3" />
      <rect x="0" y="138" width="800" height="1" fill="#0f0" opacity="0.3" />
      <rect x="0" y="142" width="800" height="1" fill="#0f0" opacity="0.3" />
      <rect x="0" y="146" width="800" height="1" fill="#0f0" opacity="0.3" />
    </g>
  </g>
  
  <!-- Glow effect behind text -->
  <text x="400" y="100" font-family="monospace, Courier New" font-size="80" font-weight="bold" text-anchor="middle" fill="url(#glow)" filter="url(#blur)">DEAD LOOP</text>
  
  <!-- Main text -->
  <text x="400" y="100" font-family="monospace, Courier New" font-size="80" font-weight="bold" text-anchor="middle" fill="#00ff33" stroke="#008833" stroke-width="1">DEAD LOOP</text>
  
  <!-- Overlay noise effect -->
  <rect x="0" y="0" width="800" height="150" fill="transparent" filter="url(#noise)" opacity="0.08" />
  
  <!-- Record indicator and camera code at top corners -->
  <text x="20" y="30" font-family="monospace" font-size="14" fill="#00ff33">REC ●</text>
  <text x="720" y="30" font-family="monospace" font-size="14" fill="#00ff33">CAM-01 :: CASE FILE</text>
</svg>